#tb 0: 6/49
0,          0,          0,        1,   460800, 0x1f8b53b0
0,          1,          1,        1,   460800, 0x95b6b292
0,          2,          2,        1,   460800, 0xad55b3da
0,          3,          3,        1,   460800, 0x61f98327
0,          4,          4,        1,   460800, 0x49dd8334
0,          5,          5,        1,   460800, 0x99f7861a
0,          6,          6,        1,   460800, 0x855b8d71
0,          7,          7,        1,   460800, 0x82038d28
0,          8,          8,        1,   460800, 0x69998bcd
0,          9,          9,        1,   460800, 0x02068d39
0,         10,         10,        1,   460800, 0xf245cd05
0,         11,         11,        1,   460800, 0x2281a3e7
0,         12,         12,        1,   460800, 0x5f01db74
0,         13,         13,        1,   460800, 0x51e9d5ce
